<mxfile host="app.diagrams.net" agent="Mozilla/5.0 (Windows NT 10.0; Win64; x64) AppleWebKit/537.36 (KHTML, like Gecko) Chrome/129.0.0.0 Safari/537.36" version="24.7.17">
  <diagram id="C5RBs43oDa-KdzZeNtuy" name="Page-1">
    <mxGraphModel dx="2947" dy="2409" grid="1" gridSize="10" guides="1" tooltips="1" connect="1" arrows="1" fold="1" page="1" pageScale="1" pageWidth="827" pageHeight="1169" math="0" shadow="0">
      <root>
        <mxCell id="WIyWlLk6GJQsqaUBKTNV-0" />
        <mxCell id="WIyWlLk6GJQsqaUBKTNV-1" parent="WIyWlLk6GJQsqaUBKTNV-0" />
        <mxCell id="UOhAWtdppKsYWpPjZHoK-34" style="edgeStyle=orthogonalEdgeStyle;rounded=0;orthogonalLoop=1;jettySize=auto;html=1;exitX=0.5;exitY=1;exitDx=0;exitDy=0;entryX=0.5;entryY=0;entryDx=0;entryDy=0;" edge="1" parent="WIyWlLk6GJQsqaUBKTNV-1" source="UOhAWtdppKsYWpPjZHoK-0" target="UOhAWtdppKsYWpPjZHoK-33">
          <mxGeometry relative="1" as="geometry" />
        </mxCell>
        <mxCell id="UOhAWtdppKsYWpPjZHoK-0" value="Software Architekt" style="rounded=1;whiteSpace=wrap;html=1;" vertex="1" parent="WIyWlLk6GJQsqaUBKTNV-1">
          <mxGeometry x="320" y="-120" width="120" height="60" as="geometry" />
        </mxCell>
        <mxCell id="UOhAWtdppKsYWpPjZHoK-22" style="edgeStyle=orthogonalEdgeStyle;rounded=0;orthogonalLoop=1;jettySize=auto;html=1;exitX=0;exitY=0.5;exitDx=0;exitDy=0;entryX=1;entryY=0.5;entryDx=0;entryDy=0;" edge="1" parent="WIyWlLk6GJQsqaUBKTNV-1" source="UOhAWtdppKsYWpPjZHoK-2" target="UOhAWtdppKsYWpPjZHoK-21">
          <mxGeometry relative="1" as="geometry" />
        </mxCell>
        <mxCell id="UOhAWtdppKsYWpPjZHoK-2" value="PMO" style="rounded=1;whiteSpace=wrap;html=1;" vertex="1" parent="WIyWlLk6GJQsqaUBKTNV-1">
          <mxGeometry x="320" y="120" width="120" height="60" as="geometry" />
        </mxCell>
        <mxCell id="UOhAWtdppKsYWpPjZHoK-48" style="edgeStyle=orthogonalEdgeStyle;rounded=0;orthogonalLoop=1;jettySize=auto;html=1;exitX=0.5;exitY=1;exitDx=0;exitDy=0;entryX=1;entryY=0.5;entryDx=0;entryDy=0;" edge="1" parent="WIyWlLk6GJQsqaUBKTNV-1" source="UOhAWtdppKsYWpPjZHoK-3" target="UOhAWtdppKsYWpPjZHoK-13">
          <mxGeometry relative="1" as="geometry" />
        </mxCell>
        <mxCell id="UOhAWtdppKsYWpPjZHoK-49" style="edgeStyle=orthogonalEdgeStyle;rounded=0;orthogonalLoop=1;jettySize=auto;html=1;exitX=1;exitY=1;exitDx=0;exitDy=0;entryX=1;entryY=0.5;entryDx=0;entryDy=0;" edge="1" parent="WIyWlLk6GJQsqaUBKTNV-1" source="UOhAWtdppKsYWpPjZHoK-3" target="UOhAWtdppKsYWpPjZHoK-12">
          <mxGeometry relative="1" as="geometry" />
        </mxCell>
        <mxCell id="UOhAWtdppKsYWpPjZHoK-53" style="edgeStyle=orthogonalEdgeStyle;rounded=0;orthogonalLoop=1;jettySize=auto;html=1;exitX=0;exitY=1;exitDx=0;exitDy=0;entryX=1;entryY=0.5;entryDx=0;entryDy=0;" edge="1" parent="WIyWlLk6GJQsqaUBKTNV-1" source="UOhAWtdppKsYWpPjZHoK-3" target="UOhAWtdppKsYWpPjZHoK-14">
          <mxGeometry relative="1" as="geometry" />
        </mxCell>
        <mxCell id="UOhAWtdppKsYWpPjZHoK-3" value="Sharepoint" style="rounded=1;whiteSpace=wrap;html=1;" vertex="1" parent="WIyWlLk6GJQsqaUBKTNV-1">
          <mxGeometry x="720" y="120" width="120" height="60" as="geometry" />
        </mxCell>
        <mxCell id="UOhAWtdppKsYWpPjZHoK-5" value="einheitliche&lt;div&gt;Form&lt;/div&gt;" style="rhombus;whiteSpace=wrap;html=1;" vertex="1" parent="WIyWlLk6GJQsqaUBKTNV-1">
          <mxGeometry x="540" y="110" width="80" height="80" as="geometry" />
        </mxCell>
        <mxCell id="UOhAWtdppKsYWpPjZHoK-6" value="" style="endArrow=classic;html=1;rounded=0;exitX=1;exitY=0.5;exitDx=0;exitDy=0;entryX=0;entryY=0.5;entryDx=0;entryDy=0;" edge="1" parent="WIyWlLk6GJQsqaUBKTNV-1" source="UOhAWtdppKsYWpPjZHoK-2" target="UOhAWtdppKsYWpPjZHoK-5">
          <mxGeometry width="50" height="50" relative="1" as="geometry">
            <mxPoint x="360" y="340" as="sourcePoint" />
            <mxPoint x="410" y="290" as="targetPoint" />
          </mxGeometry>
        </mxCell>
        <mxCell id="UOhAWtdppKsYWpPjZHoK-7" value="" style="endArrow=classic;html=1;rounded=0;exitX=1;exitY=0.5;exitDx=0;exitDy=0;entryX=0;entryY=0.5;entryDx=0;entryDy=0;" edge="1" parent="WIyWlLk6GJQsqaUBKTNV-1" source="UOhAWtdppKsYWpPjZHoK-5" target="UOhAWtdppKsYWpPjZHoK-3">
          <mxGeometry width="50" height="50" relative="1" as="geometry">
            <mxPoint x="360" y="340" as="sourcePoint" />
            <mxPoint x="410" y="290" as="targetPoint" />
          </mxGeometry>
        </mxCell>
        <mxCell id="UOhAWtdppKsYWpPjZHoK-8" value="Ja" style="edgeLabel;html=1;align=center;verticalAlign=middle;resizable=0;points=[];" vertex="1" connectable="0" parent="UOhAWtdppKsYWpPjZHoK-7">
          <mxGeometry x="-0.08" y="-2" relative="1" as="geometry">
            <mxPoint as="offset" />
          </mxGeometry>
        </mxCell>
        <mxCell id="UOhAWtdppKsYWpPjZHoK-9" value="" style="endArrow=classic;html=1;rounded=0;exitX=0.5;exitY=0;exitDx=0;exitDy=0;entryX=1;entryY=0;entryDx=0;entryDy=0;" edge="1" parent="WIyWlLk6GJQsqaUBKTNV-1" source="UOhAWtdppKsYWpPjZHoK-5" target="UOhAWtdppKsYWpPjZHoK-2">
          <mxGeometry width="50" height="50" relative="1" as="geometry">
            <mxPoint x="360" y="340" as="sourcePoint" />
            <mxPoint x="410" y="290" as="targetPoint" />
            <Array as="points">
              <mxPoint x="580" y="80" />
              <mxPoint x="440" y="80" />
            </Array>
          </mxGeometry>
        </mxCell>
        <mxCell id="UOhAWtdppKsYWpPjZHoK-10" value="Nein" style="edgeLabel;html=1;align=center;verticalAlign=middle;resizable=0;points=[];" vertex="1" connectable="0" parent="UOhAWtdppKsYWpPjZHoK-9">
          <mxGeometry x="-0.8061" y="1" relative="1" as="geometry">
            <mxPoint x="1" y="13" as="offset" />
          </mxGeometry>
        </mxCell>
        <mxCell id="UOhAWtdppKsYWpPjZHoK-57" style="edgeStyle=orthogonalEdgeStyle;rounded=0;orthogonalLoop=1;jettySize=auto;html=1;exitX=0.5;exitY=1;exitDx=0;exitDy=0;entryX=0;entryY=0;entryDx=0;entryDy=0;" edge="1" parent="WIyWlLk6GJQsqaUBKTNV-1" source="UOhAWtdppKsYWpPjZHoK-12" target="UOhAWtdppKsYWpPjZHoK-56">
          <mxGeometry relative="1" as="geometry">
            <Array as="points">
              <mxPoint x="180" y="440" />
              <mxPoint x="360" y="440" />
            </Array>
          </mxGeometry>
        </mxCell>
        <mxCell id="UOhAWtdppKsYWpPjZHoK-12" value="Kunde" style="rounded=1;whiteSpace=wrap;html=1;" vertex="1" parent="WIyWlLk6GJQsqaUBKTNV-1">
          <mxGeometry x="120" y="360" width="120" height="60" as="geometry" />
        </mxCell>
        <mxCell id="UOhAWtdppKsYWpPjZHoK-19" style="edgeStyle=orthogonalEdgeStyle;rounded=0;orthogonalLoop=1;jettySize=auto;html=1;exitX=0.5;exitY=0;exitDx=0;exitDy=0;entryX=0.5;entryY=1;entryDx=0;entryDy=0;" edge="1" parent="WIyWlLk6GJQsqaUBKTNV-1" source="UOhAWtdppKsYWpPjZHoK-13" target="UOhAWtdppKsYWpPjZHoK-2">
          <mxGeometry relative="1" as="geometry" />
        </mxCell>
        <mxCell id="UOhAWtdppKsYWpPjZHoK-58" style="edgeStyle=orthogonalEdgeStyle;rounded=0;orthogonalLoop=1;jettySize=auto;html=1;exitX=0.5;exitY=1;exitDx=0;exitDy=0;entryX=0.5;entryY=0;entryDx=0;entryDy=0;" edge="1" parent="WIyWlLk6GJQsqaUBKTNV-1" source="UOhAWtdppKsYWpPjZHoK-13" target="UOhAWtdppKsYWpPjZHoK-56">
          <mxGeometry relative="1" as="geometry" />
        </mxCell>
        <mxCell id="UOhAWtdppKsYWpPjZHoK-13" value="Gutachter" style="rounded=1;whiteSpace=wrap;html=1;" vertex="1" parent="WIyWlLk6GJQsqaUBKTNV-1">
          <mxGeometry x="320" y="300" width="120" height="60" as="geometry" />
        </mxCell>
        <mxCell id="UOhAWtdppKsYWpPjZHoK-20" style="edgeStyle=orthogonalEdgeStyle;rounded=0;orthogonalLoop=1;jettySize=auto;html=1;exitX=0.5;exitY=0;exitDx=0;exitDy=0;entryX=1;entryY=1;entryDx=0;entryDy=0;" edge="1" parent="WIyWlLk6GJQsqaUBKTNV-1" source="UOhAWtdppKsYWpPjZHoK-14" target="UOhAWtdppKsYWpPjZHoK-2">
          <mxGeometry relative="1" as="geometry" />
        </mxCell>
        <mxCell id="UOhAWtdppKsYWpPjZHoK-59" style="edgeStyle=orthogonalEdgeStyle;rounded=0;orthogonalLoop=1;jettySize=auto;html=1;exitX=0.5;exitY=1;exitDx=0;exitDy=0;entryX=1;entryY=0;entryDx=0;entryDy=0;" edge="1" parent="WIyWlLk6GJQsqaUBKTNV-1" source="UOhAWtdppKsYWpPjZHoK-14" target="UOhAWtdppKsYWpPjZHoK-56">
          <mxGeometry relative="1" as="geometry">
            <Array as="points">
              <mxPoint x="580" y="440" />
              <mxPoint x="400" y="440" />
            </Array>
          </mxGeometry>
        </mxCell>
        <mxCell id="UOhAWtdppKsYWpPjZHoK-14" value="IT Leiter" style="rounded=1;whiteSpace=wrap;html=1;" vertex="1" parent="WIyWlLk6GJQsqaUBKTNV-1">
          <mxGeometry x="520" y="240" width="120" height="60" as="geometry" />
        </mxCell>
        <mxCell id="UOhAWtdppKsYWpPjZHoK-18" value="" style="endArrow=classic;html=1;rounded=0;exitX=0.5;exitY=0;exitDx=0;exitDy=0;entryX=0;entryY=1;entryDx=0;entryDy=0;" edge="1" parent="WIyWlLk6GJQsqaUBKTNV-1" source="UOhAWtdppKsYWpPjZHoK-12" target="UOhAWtdppKsYWpPjZHoK-2">
          <mxGeometry width="50" height="50" relative="1" as="geometry">
            <mxPoint x="390" y="310" as="sourcePoint" />
            <mxPoint x="440" y="260" as="targetPoint" />
            <Array as="points">
              <mxPoint x="180" y="210" />
              <mxPoint x="320" y="210" />
            </Array>
          </mxGeometry>
        </mxCell>
        <mxCell id="UOhAWtdppKsYWpPjZHoK-23" style="edgeStyle=orthogonalEdgeStyle;rounded=0;orthogonalLoop=1;jettySize=auto;html=1;exitX=0.5;exitY=0;exitDx=0;exitDy=0;entryX=0;entryY=0;entryDx=0;entryDy=0;" edge="1" parent="WIyWlLk6GJQsqaUBKTNV-1" source="UOhAWtdppKsYWpPjZHoK-21" target="UOhAWtdppKsYWpPjZHoK-2">
          <mxGeometry relative="1" as="geometry">
            <Array as="points">
              <mxPoint x="180" y="80" />
              <mxPoint x="320" y="80" />
            </Array>
          </mxGeometry>
        </mxCell>
        <mxCell id="UOhAWtdppKsYWpPjZHoK-24" value="Nein" style="edgeLabel;html=1;align=center;verticalAlign=middle;resizable=0;points=[];" vertex="1" connectable="0" parent="UOhAWtdppKsYWpPjZHoK-23">
          <mxGeometry x="-0.9048" y="-1" relative="1" as="geometry">
            <mxPoint as="offset" />
          </mxGeometry>
        </mxCell>
        <mxCell id="UOhAWtdppKsYWpPjZHoK-26" style="edgeStyle=orthogonalEdgeStyle;rounded=0;orthogonalLoop=1;jettySize=auto;html=1;exitX=0;exitY=0.5;exitDx=0;exitDy=0;entryX=1;entryY=0.5;entryDx=0;entryDy=0;" edge="1" parent="WIyWlLk6GJQsqaUBKTNV-1" source="UOhAWtdppKsYWpPjZHoK-21" target="UOhAWtdppKsYWpPjZHoK-25">
          <mxGeometry relative="1" as="geometry" />
        </mxCell>
        <mxCell id="UOhAWtdppKsYWpPjZHoK-27" value="Ja" style="edgeLabel;html=1;align=center;verticalAlign=middle;resizable=0;points=[];" vertex="1" connectable="0" parent="UOhAWtdppKsYWpPjZHoK-26">
          <mxGeometry x="-0.04" y="1" relative="1" as="geometry">
            <mxPoint as="offset" />
          </mxGeometry>
        </mxCell>
        <mxCell id="UOhAWtdppKsYWpPjZHoK-21" value="alle&lt;div&gt;&lt;span style=&quot;background-color: initial;&quot;&gt;Reviews&lt;/span&gt;&lt;div&gt;&lt;span style=&quot;background-color: initial;&quot;&gt;erhalten&lt;/span&gt;&lt;/div&gt;&lt;/div&gt;" style="rhombus;whiteSpace=wrap;html=1;" vertex="1" parent="WIyWlLk6GJQsqaUBKTNV-1">
          <mxGeometry x="140" y="110" width="80" height="80" as="geometry" />
        </mxCell>
        <mxCell id="UOhAWtdppKsYWpPjZHoK-28" style="edgeStyle=orthogonalEdgeStyle;rounded=0;orthogonalLoop=1;jettySize=auto;html=1;exitX=0.5;exitY=0;exitDx=0;exitDy=0;entryX=0;entryY=0.5;entryDx=0;entryDy=0;" edge="1" parent="WIyWlLk6GJQsqaUBKTNV-1" source="UOhAWtdppKsYWpPjZHoK-25" target="UOhAWtdppKsYWpPjZHoK-0">
          <mxGeometry relative="1" as="geometry">
            <Array as="points">
              <mxPoint y="-90" />
            </Array>
          </mxGeometry>
        </mxCell>
        <mxCell id="UOhAWtdppKsYWpPjZHoK-29" value="Ja" style="edgeLabel;html=1;align=center;verticalAlign=middle;resizable=0;points=[];" vertex="1" connectable="0" parent="UOhAWtdppKsYWpPjZHoK-28">
          <mxGeometry x="-0.93" relative="1" as="geometry">
            <mxPoint as="offset" />
          </mxGeometry>
        </mxCell>
        <mxCell id="UOhAWtdppKsYWpPjZHoK-45" style="edgeStyle=orthogonalEdgeStyle;rounded=0;orthogonalLoop=1;jettySize=auto;html=1;exitX=0.5;exitY=1;exitDx=0;exitDy=0;entryX=0.5;entryY=0;entryDx=0;entryDy=0;" edge="1" parent="WIyWlLk6GJQsqaUBKTNV-1" source="UOhAWtdppKsYWpPjZHoK-25" target="UOhAWtdppKsYWpPjZHoK-44">
          <mxGeometry relative="1" as="geometry" />
        </mxCell>
        <mxCell id="UOhAWtdppKsYWpPjZHoK-46" value="Nein" style="edgeLabel;html=1;align=center;verticalAlign=middle;resizable=0;points=[];" vertex="1" connectable="0" parent="UOhAWtdppKsYWpPjZHoK-45">
          <mxGeometry x="-0.3262" relative="1" as="geometry">
            <mxPoint as="offset" />
          </mxGeometry>
        </mxCell>
        <mxCell id="UOhAWtdppKsYWpPjZHoK-25" value="Fehler" style="rhombus;whiteSpace=wrap;html=1;" vertex="1" parent="WIyWlLk6GJQsqaUBKTNV-1">
          <mxGeometry x="-40" y="110" width="80" height="80" as="geometry" />
        </mxCell>
        <mxCell id="UOhAWtdppKsYWpPjZHoK-35" style="edgeStyle=orthogonalEdgeStyle;rounded=0;orthogonalLoop=1;jettySize=auto;html=1;exitX=0.5;exitY=1;exitDx=0;exitDy=0;entryX=0.5;entryY=0;entryDx=0;entryDy=0;" edge="1" parent="WIyWlLk6GJQsqaUBKTNV-1" source="UOhAWtdppKsYWpPjZHoK-33" target="UOhAWtdppKsYWpPjZHoK-2">
          <mxGeometry relative="1" as="geometry" />
        </mxCell>
        <mxCell id="UOhAWtdppKsYWpPjZHoK-36" value="Nein" style="edgeLabel;html=1;align=center;verticalAlign=middle;resizable=0;points=[];" vertex="1" connectable="0" parent="UOhAWtdppKsYWpPjZHoK-35">
          <mxGeometry x="-0.305" y="-1" relative="1" as="geometry">
            <mxPoint as="offset" />
          </mxGeometry>
        </mxCell>
        <mxCell id="UOhAWtdppKsYWpPjZHoK-47" style="edgeStyle=orthogonalEdgeStyle;rounded=0;orthogonalLoop=1;jettySize=auto;html=1;exitX=0;exitY=0.5;exitDx=0;exitDy=0;entryX=0;entryY=0.5;entryDx=0;entryDy=0;" edge="1" parent="WIyWlLk6GJQsqaUBKTNV-1" source="UOhAWtdppKsYWpPjZHoK-33" target="UOhAWtdppKsYWpPjZHoK-44">
          <mxGeometry relative="1" as="geometry" />
        </mxCell>
        <mxCell id="UOhAWtdppKsYWpPjZHoK-33" value="weniger&lt;div&gt;kritischer&lt;/div&gt;&lt;div&gt;Fehler&lt;/div&gt;" style="rhombus;whiteSpace=wrap;html=1;" vertex="1" parent="WIyWlLk6GJQsqaUBKTNV-1">
          <mxGeometry x="340" y="-10" width="80" height="80" as="geometry" />
        </mxCell>
        <mxCell id="UOhAWtdppKsYWpPjZHoK-50" style="edgeStyle=orthogonalEdgeStyle;rounded=0;orthogonalLoop=1;jettySize=auto;html=1;exitX=1;exitY=0;exitDx=0;exitDy=0;entryX=0;entryY=0.5;entryDx=0;entryDy=0;" edge="1" parent="WIyWlLk6GJQsqaUBKTNV-1" source="UOhAWtdppKsYWpPjZHoK-44" target="UOhAWtdppKsYWpPjZHoK-14">
          <mxGeometry relative="1" as="geometry" />
        </mxCell>
        <mxCell id="UOhAWtdppKsYWpPjZHoK-51" style="edgeStyle=orthogonalEdgeStyle;rounded=0;orthogonalLoop=1;jettySize=auto;html=1;exitX=1;exitY=0.5;exitDx=0;exitDy=0;entryX=0;entryY=0.5;entryDx=0;entryDy=0;" edge="1" parent="WIyWlLk6GJQsqaUBKTNV-1" source="UOhAWtdppKsYWpPjZHoK-44" target="UOhAWtdppKsYWpPjZHoK-13">
          <mxGeometry relative="1" as="geometry" />
        </mxCell>
        <mxCell id="UOhAWtdppKsYWpPjZHoK-52" style="edgeStyle=orthogonalEdgeStyle;rounded=0;orthogonalLoop=1;jettySize=auto;html=1;exitX=1;exitY=1;exitDx=0;exitDy=0;entryX=0;entryY=0.5;entryDx=0;entryDy=0;" edge="1" parent="WIyWlLk6GJQsqaUBKTNV-1" source="UOhAWtdppKsYWpPjZHoK-44" target="UOhAWtdppKsYWpPjZHoK-12">
          <mxGeometry relative="1" as="geometry" />
        </mxCell>
        <mxCell id="UOhAWtdppKsYWpPjZHoK-44" value="Abnahme durch PMO" style="rounded=1;whiteSpace=wrap;html=1;" vertex="1" parent="WIyWlLk6GJQsqaUBKTNV-1">
          <mxGeometry x="-60" y="240" width="120" height="60" as="geometry" />
        </mxCell>
        <mxCell id="UOhAWtdppKsYWpPjZHoK-54" value="Implementierung" style="rounded=0;whiteSpace=wrap;html=1;fillColor=#d5e8d4;strokeColor=#82b366;" vertex="1" parent="WIyWlLk6GJQsqaUBKTNV-1">
          <mxGeometry x="320" y="600" width="120" height="60" as="geometry" />
        </mxCell>
        <mxCell id="UOhAWtdppKsYWpPjZHoK-60" style="edgeStyle=orthogonalEdgeStyle;rounded=0;orthogonalLoop=1;jettySize=auto;html=1;exitX=0.5;exitY=1;exitDx=0;exitDy=0;entryX=0.5;entryY=0;entryDx=0;entryDy=0;" edge="1" parent="WIyWlLk6GJQsqaUBKTNV-1" source="UOhAWtdppKsYWpPjZHoK-56" target="UOhAWtdppKsYWpPjZHoK-54">
          <mxGeometry relative="1" as="geometry" />
        </mxCell>
        <mxCell id="UOhAWtdppKsYWpPjZHoK-63" value="Ja" style="edgeLabel;html=1;align=center;verticalAlign=middle;resizable=0;points=[];" vertex="1" connectable="0" parent="UOhAWtdppKsYWpPjZHoK-60">
          <mxGeometry x="-0.6338" y="1" relative="1" as="geometry">
            <mxPoint as="offset" />
          </mxGeometry>
        </mxCell>
        <mxCell id="UOhAWtdppKsYWpPjZHoK-56" value="alle&lt;div&gt;Unterschriften&lt;/div&gt;" style="rhombus;whiteSpace=wrap;html=1;" vertex="1" parent="WIyWlLk6GJQsqaUBKTNV-1">
          <mxGeometry x="340" y="470" width="80" height="80" as="geometry" />
        </mxCell>
      </root>
    </mxGraphModel>
  </diagram>
</mxfile>
